<?xml version="1.0" encoding="iso-8859-1"?>
<!-- Generator: Adobe Illustrator 27.0.0, SVG Export Plug-In . SVG Version: 6.00 Build 0)  -->
<svg version="1.1" id="Layer_1" xmlns="http://www.w3.org/2000/svg" xmlns:xlink="http://www.w3.org/1999/xlink" x="0px" y="0px"
	 viewBox="0 0 1080 1080" style="enable-background:new 0 0 1080 1080;" xml:space="preserve">
<g>
	
		<image style="overflow:visible;" width="1025" height="1024" xlink:href="../../../../../../../../../Users/collinskoech/Downloads/Rounded Square/512/Behance-Icon.png"  transform="matrix(0.0907 0 0 0.0907 906.2479 493.2576)">
	</image>
	
		<image style="overflow:visible;" width="1024" height="1025" xlink:href="../../../../../../../../../Users/collinskoech/Downloads/Rounded Square/512/Discord-Icon.png"  transform="matrix(0.0907 0 0 0.0907 831.2826 493.2576)">
	</image>
	
		<image style="overflow:visible;" width="1025" height="1024" xlink:href="../../../../../../../../../Users/collinskoech/Downloads/Rounded Square/512/Dribbble-Icon.png"  transform="matrix(0.0907 0 0 0.0907 756.2265 493.2576)">
	</image>
	
		<image style="overflow:visible;" width="1024" height="1024" xlink:href="../../../../../../../../../Users/collinskoech/Downloads/Rounded Square/512/Facebook-Icon.png"  transform="matrix(0.0907 0 0 0.0907 681.2612 493.2576)">
	</image>
	
		<image style="overflow:visible;" width="1025" height="1024" xlink:href="../../../../../../../../../Users/collinskoech/Downloads/Rounded Square/512/Instagram-Icon.png"  transform="matrix(0.0907 0 0 0.0907 606.2051 493.2576)">
	</image>
	
		<image style="overflow:visible;" width="1025" height="1025" xlink:href="../../../../../../../../../Users/collinskoech/Downloads/Rounded Square/512/Linkedin-Icon.png"  transform="matrix(0.0907 0 0 0.0907 531.149 493.2576)">
	</image>
	
		<image style="overflow:visible;" width="1025" height="1024" xlink:href="../../../../../../../../../Users/collinskoech/Downloads/Rounded Square/512/Pinterest-Icon.png"  transform="matrix(0.0907 0 0 0.0907 456.093 493.2576)">
	</image>
	
		<image style="overflow:visible;" width="1025" height="1025" xlink:href="../../../../../../../../../Users/collinskoech/Downloads/Rounded Square/512/Reddit-Icon.png"  transform="matrix(0.0907 0 0 0.0907 381.037 493.2576)">
	</image>
	
		<image style="overflow:visible;" width="1025" height="1025" xlink:href="../../../../../../../../../Users/collinskoech/Downloads/Rounded Square/512/Snapchat-Icon.png"  transform="matrix(0.0907 0 0 0.0907 305.9809 493.2576)">
	</image>
	
		<image style="overflow:visible;" width="1025" height="1025" xlink:href="../../../../../../../../../Users/collinskoech/Downloads/Rounded Square/512/Telegram-Icon.png"  transform="matrix(0.0907 0 0 0.0907 230.9248 493.2576)">
	</image>
	
		<image style="overflow:visible;" width="1025" height="1025" xlink:href="../../../../../../../../../Users/collinskoech/Downloads/Rounded Square/512/TikTok-Icon.png"  transform="matrix(0.0907 0 0 0.0907 155.8688 493.2576)">
	</image>
	
		<image style="overflow:visible;" width="1025" height="1024" xlink:href="../../../../../../../../../Users/collinskoech/Downloads/Rounded Square/512/Twitter-Icon.png"  transform="matrix(0.0907 0 0 0.0907 80.8127 493.2576)">
	</image>
	
		<image style="overflow:visible;" width="1025" height="1025" xlink:href="../../../../../../../../../Users/collinskoech/Downloads/Rounded Square/512/Whatsapp-Icon.png"  transform="matrix(0.0907 0 0 0.0907 5.7566 493.2576)">
	</image>
	
		<image style="overflow:visible;" width="1025" height="1024" xlink:href="../../../../../../../../../Users/collinskoech/Downloads/Rounded Square/512/Youtube-Icon.png"  transform="matrix(0.0907 0 0 0.0907 981.304 493.2576)">
	</image>
</g>
</svg>
